<?xml version="1.0" standalone="no"?>
<!DOCTYPE svg PUBLIC "-//W3C//DTD SVG 20010904//EN"
 "http://www.w3.org/TR/2001/REC-SVG-20010904/DTD/svg10.dtd">
<svg version="1.0" xmlns="http://www.w3.org/2000/svg"
 width="650.000000pt" height="650.000000pt" viewBox="0 0 650.000000 650.000000"
 preserveAspectRatio="xMidYMid meet">
<metadata>
Created by potrace 1.15, written by Peter Selinger 2001-2017
</metadata>
<g transform="translate(0.000000,650.000000) scale(0.100000,-0.100000)"
fill="#000000" stroke="none">
<path d="M2523 5598 c3 -109 2 -198 -3 -198 -4 0 -74 41 -154 90 -81 50 -150
88 -155 86 -4 -3 -18 -43 -31 -90 -14 -48 -30 -86 -36 -86 -7 0 -87 34 -178
75 -91 41 -170 75 -176 75 -7 0 -9 -15 -5 -42 11 -85 25 -224 25 -256 l0 -34
-186 97 c-102 53 -187 95 -190 93 -5 -6 209 -319 293 -427 40 -51 71 -96 68
-100 -2 -4 -60 -30 -129 -57 -69 -27 -126 -51 -126 -54 0 -3 68 -34 151 -70
88 -37 145 -66 137 -70 -7 -4 -62 -20 -121 -35 -59 -16 -104 -31 -100 -35 4
-4 60 -21 123 -39 63 -18 139 -39 168 -47 l52 -15 0 -144 0 -145 -86 56 c-47
30 -92 58 -100 61 -12 4 -14 -34 -14 -243 l0 -249 -100 -64 c-55 -34 -102 -67
-105 -71 -3 -5 13 -19 35 -31 22 -13 39 -27 37 -32 -2 -6 -74 -55 -160 -111
-86 -56 -157 -103 -157 -106 0 -3 74 -52 165 -110 91 -58 163 -109 162 -115
-2 -5 -75 -56 -163 -113 -87 -56 -160 -106 -161 -110 -1 -4 72 -54 162 -112
91 -58 164 -109 162 -113 -1 -5 -74 -55 -162 -112 -88 -56 -160 -107 -159
-111 1 -5 85 -62 187 -129 102 -66 189 -123 193 -128 4 -4 -2 -14 -14 -23 -19
-13 -22 -24 -22 -88 l0 -73 50 -31 50 -31 0 -120 0 -119 100 -64 99 -63 1
-158 c0 -87 4 -157 8 -155 4 2 61 36 125 77 l118 74 27 -20 c27 -20 27 -21 32
-172 l5 -152 117 75 118 76 277 -179 278 -179 3 65 c2 52 8 73 29 99 14 19 30
34 36 34 5 0 46 -23 89 -50 43 -28 81 -50 85 -50 3 0 34 18 69 40 35 22 68 40
73 40 4 0 14 7 21 15 25 30 30 13 30 -90 0 -58 2 -105 4 -105 2 0 165 104 362
232 198 127 428 276 513 330 l154 98 141 1 c78 1 152 4 165 8 26 7 33 -3 -177
223 l-34 36 48 116 c27 64 53 116 59 116 5 0 21 -9 35 -20 14 -11 28 -20 33
-20 4 0 7 35 7 79 l0 79 34 6 c19 4 58 14 87 22 l53 16 -87 55 -87 55 0 88 0
88 45 29 c25 15 45 30 45 33 0 3 -20 18 -45 33 l-45 29 0 229 0 229 25 12 c30
14 32 24 4 38 -11 6 -19 15 -17 20 2 5 39 41 83 81 44 40 81 76 83 79 1 4 -38
31 -88 61 l-90 53 0 122 0 121 -105 67 c-58 37 -105 70 -105 72 0 2 23 50 51
105 27 56 48 103 45 106 -3 3 -51 14 -108 24 -57 11 -109 21 -116 24 -10 3
-12 48 -10 197 l3 192 150 43 c170 49 180 52 173 58 -2 2 -49 16 -104 31 -54
14 -102 29 -106 33 -4 4 60 40 142 81 83 41 150 77 150 81 0 3 -60 18 -132 33
-73 16 -137 32 -142 37 -5 4 17 37 51 76 55 62 210 309 201 319 -3 2 -62 -6
-132 -17 -70 -11 -129 -19 -131 -17 -2 2 3 74 12 161 9 86 13 160 10 163 -3 3
-82 -28 -175 -70 -93 -42 -174 -76 -180 -76 -8 0 -21 35 -58 163 -7 24 -11 22
-166 -74 -71 -44 -136 -83 -145 -86 -15 -6 -16 12 -10 190 4 108 5 197 3 197
-1 0 -81 -115 -176 -255 -95 -140 -176 -255 -179 -254 -3 0 -62 65 -131 145
-68 79 -127 144 -130 144 -4 0 -14 -98 -24 -217 -17 -195 -26 -247 -40 -232
-3 2 -14 102 -24 222 -11 121 -23 221 -25 223 -3 3 -62 -60 -132 -140 -70 -81
-129 -146 -131 -146 -3 0 -67 91 -244 350 l-112 165 5 -197z m-73 -298 c89
-56 171 -105 182 -111 19 -10 19 -7 16 100 -2 61 -3 111 -2 111 0 0 47 -70
105 -155 57 -85 107 -155 110 -155 4 0 47 46 95 101 49 56 89 97 91 93 1 -5 9
-77 17 -161 12 -118 13 -178 5 -275 -5 -67 -11 -126 -12 -129 -1 -3 -191 52
-421 123 -231 71 -424 127 -429 125 -6 -2 138 -87 319 -189 l329 -187 3 -99 3
-100 -47 -18 c-46 -18 -47 -17 -85 4 l-38 22 -93 -60 c-51 -33 -97 -60 -103
-60 -6 0 -36 16 -66 35 l-56 35 8 42 c4 24 8 48 9 54 0 5 -79 32 -175 59 -96
26 -175 51 -175 54 0 3 59 22 130 41 72 19 130 37 130 40 0 7 -441 110 -470
110 -13 1 -13 2 0 9 8 5 54 12 102 16 49 4 90 10 92 13 2 4 -58 79 -134 167
-76 88 -134 161 -130 163 4 2 47 -15 95 -38 49 -22 90 -38 92 -36 2 2 -3 72
-12 156 -9 84 -14 155 -11 158 3 3 72 -25 153 -61 80 -37 148 -65 150 -63 2 2
12 34 23 72 23 81 28 94 33 94 3 0 78 -45 167 -100z m1680 28 c11 -40 23 -78
25 -85 5 -14 4 -14 193 71 l123 55 -5 -27 c-9 -46 -29 -279 -25 -290 2 -5 48
10 102 34 l98 43 -29 -37 c-17 -20 -80 -95 -141 -167 -61 -71 -111 -133 -111
-136 0 -7 102 -19 156 -19 84 0 24 -21 -197 -70 -132 -29 -236 -57 -232 -61 4
-4 62 -22 128 -40 66 -17 123 -35 127 -38 4 -4 -71 -28 -167 -55 -195 -54
-187 -47 -166 -138 5 -21 7 -38 5 -38 -2 0 -41 24 -86 53 -46 30 -153 98 -238
152 -85 53 -161 103 -168 109 -10 10 36 38 220 136 310 164 360 191 355 197
-3 2 -206 -52 -451 -121 -246 -70 -452 -126 -457 -126 -6 0 -8 12 -5 28 2 15
8 75 11 135 l7 107 53 0 c52 0 53 1 58 33 3 17 9 75 13 127 4 52 10 103 13
112 5 13 26 -7 91 -82 47 -55 88 -99 92 -100 4 0 53 68 110 151 l103 151 5
-105 5 -105 175 108 c96 60 178 109 182 110 3 0 16 -33 28 -72z"/>
</g>
</svg>
