<?xml version="1.0" standalone="no"?>
<!DOCTYPE svg PUBLIC "-//W3C//DTD SVG 20010904//EN"
 "http://www.w3.org/TR/2001/REC-SVG-20010904/DTD/svg10.dtd">
<svg version="1.0" xmlns="http://www.w3.org/2000/svg"
 width="310.000000pt" height="310.000000pt" viewBox="0 0 310.000000 310.000000"
 preserveAspectRatio="xMidYMid meet">
<metadata>
Created by potrace 1.15, written by Peter Selinger 2001-2017
</metadata>
<g transform="translate(0.000000,310.000000) scale(0.100000,-0.100000)"
fill="#000000" stroke="none">
<path d="M1603 2732 l-53 -3 0 -80 0 -79 253 2 252 3 0 79 0 80 -200 0 c-110
1 -224 0 -252 -2z m208 -24 c0 -10 2 -10 6 0 2 6 18 12 34 12 22 0 30 -6 35
-25 7 -27 -6 -128 -13 -107 -3 6 -9 12 -14 12 -6 0 -7 -5 -4 -10 5 -7 -16 -10
-62 -8 l-68 3 -1 68 -2 67 44 0 c28 0 44 -5 45 -12z"/>
<path d="M1040 2478 l0 -87 -62 -4 -63 -3 73 -1 c39 0 72 3 72 6 0 3 33 6 72
6 223 1 421 6 415 11 -3 3 -80 5 -170 4 l-165 -1 2 68 1 68 158 1 157 0 0 -49
c0 -63 7 -58 11 8 l3 50 -252 5 -252 5 0 -87z"/>
<path d="M2148 2562 l-88 -3 0 -69 c0 -38 3 -71 8 -73 4 -3 6 26 4 63 l-4 68
76 1 76 1 1 -63 c1 -34 1 -68 0 -74 -1 -10 22 -13 89 -13 l90 0 0 -85 0 -86
81 3 80 3 2 80 2 80 -82 3 -83 3 0 79 c0 44 -3 80 -7 80 -74 4 -176 4 -245 2z"/>
<path d="M706 2391 c-2 -3 -4 -41 -5 -83 l-2 -78 88 0 89 0 -1 83 0 82 -83 1
c-46 0 -85 -2 -86 -5z"/>
<path d="M1890 2311 l0 -90 73 2 72 2 3 -72 c2 -54 0 -73 -10 -74 -7 0 -39 0
-70 1 -36 1 -58 -3 -58 -9 0 -7 28 -11 74 -11 l73 0 8 158 c4 86 11 163 17
170 8 9 -10 12 -86 12 l-96 0 0 -89z"/>
<path d="M1720 1953 c-1 -153 -1 -344 0 -425 l1 -148 -86 0 -85 0 0 -165 0
-165 79 0 c54 0 81 4 84 13 3 6 6 -34 6 -90 l1 -103 85 0 84 0 3 -170 3 -170
-258 0 -258 0 3 -82 3 -82 335 1 335 0 3 87 3 87 92 -1 c51 -1 127 -1 170 -1
l77 1 0 80 0 80 80 0 80 0 1 50 c0 28 1 65 2 83 l1 32 -167 3 -167 2 0 -85 0
-85 -85 0 -85 0 -1 83 c-1 92 -17 164 -23 105 -1 -8 -25 -12 -71 -11 l-70 0
-3 664 c-1 365 -4 670 -7 677 -3 8 -30 12 -85 12 l-80 0 0 -277z m-5 -772 c8
-38 4 -92 -8 -108 -6 -8 -34 -13 -73 -13 l-64 0 0 68 c0 38 2 71 5 74 3 3 34
6 69 7 64 2 64 2 71 -28z m675 -396 l0 -75 -75 0 -75 0 0 75 0 75 75 0 75 0 0
-75z m-327 -91 c3 -4 41 -7 83 -8 l78 -1 -1 -32 c-1 -18 -2 -49 -2 -69 l-1
-36 -80 4 c-44 2 -80 0 -80 -4 0 -5 -35 -8 -79 -8 l-78 0 1 80 0 80 77 0 c41
0 78 -3 82 -6z m-175 -246 l3 -68 -170 0 -171 0 0 71 0 70 168 -3 167 -3 3
-67z"/>
<path d="M2575 2218 c-3 -8 -4 -83 -3 -168 l3 -155 78 -3 77 -3 2 156 c0 85 1
161 2 168 1 18 -152 23 -159 5z m145 -238 l0 -80 -70 0 -70 0 0 80 0 80 70 0
70 0 0 -80z"/>
<path d="M538 1976 l3 -86 -85 0 -86 0 -1 -67 c-1 -38 -3 -77 -4 -89 -2 -19 2
-20 78 -16 l79 4 -3 -81 c-2 -44 -1 -81 2 -81 4 0 10 72 14 160 5 107 11 160
19 161 6 1 43 2 81 3 l70 1 1 75 1 75 77 3 c69 3 77 1 74 -15 -2 -10 -7 -21
-13 -25 -6 -5 -5 -8 3 -8 10 0 13 -14 10 -57 l-3 -58 90 -5 c57 -3 79 -7 60
-11 l-30 -6 30 -3 30 -2 -30 -8 c-28 -7 -28 -8 -5 -9 23 -1 25 -4 22 -45 -4
-49 -12 -53 -95 -52 -26 1 -47 -2 -47 -6 0 -5 36 -8 80 -8 l80 0 0 83 0 82
-86 0 -87 0 2 85 2 85 -168 3 -168 3 3 -85z"/>
<path d="M2740 1550 l0 -340 80 0 80 0 0 340 0 340 -80 0 -80 0 0 -340z"/>
<path d="M367 1482 c1 -53 2 -135 2 -182 l1 -85 45 0 c25 0 45 3 45 8 0 4 -18
7 -40 7 l-40 0 0 69 c0 81 4 84 98 80 l57 -3 3 87 3 87 -80 0 c-59 0 -82 4
-88 14 -4 8 -7 -29 -6 -82z"/>
<path d="M511 1223 c17 -4 29 -65 29 -147 l0 -39 122 6 c66 4 179 7 250 7
l128 0 0 80 0 81 -162 -1 c-90 0 -167 0 -173 1 -5 0 -42 0 -81 -1 -43 -1 -74
3 -78 9 -4 6 -17 10 -29 10 -15 -1 -17 -3 -6 -6z m514 -98 l1 -65 -158 0 -158
0 0 65 0 65 158 0 157 0 0 -65z"/>
<path d="M2572 1043 l3 -168 77 -3 76 -3 4 73 c1 40 1 117 0 171 l-4 97 -79 0
-79 0 2 -167z m58 144 c0 5 20 7 45 5 l45 -4 0 -59 0 -59 -47 -2 -48 -1 50 -7
c47 -6 46 -7 -25 -8 -50 0 -68 2 -55 8 14 6 16 9 4 9 -11 1 -16 13 -18 47 -3
65 5 87 30 74 10 -6 19 -7 19 -3z"/>
<path d="M367 958 c3 -46 7 -85 9 -87 1 -1 75 0 163 4 l161 8 0 73 c0 70 -1
74 -22 73 -18 -1 -19 -2 -5 -6 15 -4 18 -14 16 -69 l-2 -64 -74 0 -73 0 0 75
0 75 -89 0 -89 0 5 -82z"/>
<path d="M706 854 c-3 -9 -6 -47 -6 -85 l0 -69 85 0 84 0 3 -82 3 -83 80 0
c44 0 158 1 253 3 l172 2 0 80 0 80 -170 0 -170 0 0 85 0 85 -164 0 c-140 0
-165 -2 -170 -16z m314 -53 c0 -33 3 -66 6 -75 5 -14 -5 -16 -68 -16 -41 0
-77 2 -79 4 -2 2 -3 36 -1 75 l4 71 69 0 69 0 0 -59z m341 -121 c0 -3 1 -32 2
-65 l1 -60 -162 -3 -163 -2 2 69 2 70 158 -2 c88 -1 159 -4 160 -7z"/>
</g>
</svg>
