<?xml version="1.0" standalone="no"?>
<!DOCTYPE svg PUBLIC "-//W3C//DTD SVG 20010904//EN"
 "http://www.w3.org/TR/2001/REC-SVG-20010904/DTD/svg10.dtd">
<svg version="1.0" xmlns="http://www.w3.org/2000/svg"
 width="1300.000000pt" height="1300.000000pt" viewBox="0 0 1300.000000 1300.000000"
 preserveAspectRatio="xMidYMid meet">
<metadata>
Created by potrace 1.15, written by Peter Selinger 2001-2017
</metadata>
<g transform="translate(0.000000,1300.000000) scale(0.100000,-0.100000)"
fill="#000000" stroke="none">
<path d="M6915 11552 c-71 -16 -246 -81 -344 -129 -493 -241 -862 -670 -950
-1107 l-18 -89 -36 55 c-118 178 -328 354 -534 449 -267 123 -436 154 -918
169 -165 5 -347 16 -405 25 -104 15 -366 66 -427 84 -45 13 -45 17 21 -232 91
-345 282 -681 507 -891 38 -35 69 -67 69 -70 0 -3 -15 -6 -33 -6 -115 0 -362
-103 -504 -209 -85 -64 -205 -190 -265 -278 -99 -145 -181 -351 -213 -538 -29
-165 -20 -410 21 -570 l16 -59 -29 -20 c-76 -53 -222 -230 -295 -357 -66 -114
-137 -326 -158 -474 -13 -93 -13 -309 1 -398 42 -283 167 -545 347 -731 57
-58 61 -66 52 -90 -5 -15 -20 -75 -32 -134 -30 -142 -33 -431 -5 -562 34 -159
102 -333 180 -460 100 -164 294 -346 448 -420 l46 -23 6 -111 c17 -299 148
-605 354 -823 127 -136 270 -227 450 -290 l83 -28 10 -55 c34 -172 133 -390
244 -537 131 -174 305 -308 490 -377 89 -34 248 -66 323 -66 l60 0 38 -86
c107 -240 334 -471 572 -581 191 -88 438 -111 648 -60 127 31 274 101 375 176
149 112 308 310 378 472 l33 76 97 6 c198 13 373 80 550 210 222 162 400 447
467 749 l16 74 72 23 c311 97 579 356 712 685 65 161 105 344 105 477 l0 66
39 18 c22 9 70 38 109 64 265 176 455 470 529 821 13 65 18 130 18 270 -1 186
-11 273 -50 404 l-15 50 63 66 c232 239 357 563 357 924 0 301 -76 551 -242
791 -50 73 -173 207 -220 241 l-27 19 19 86 c72 320 29 661 -120 946 -73 140
-121 205 -230 315 -95 95 -212 175 -335 230 -86 38 -227 77 -284 79 -20 1 -46
4 -59 7 -22 7 -20 10 30 47 76 58 263 246 341 345 92 115 202 283 270 410 58
108 151 329 143 337 -2 2 -17 -2 -33 -10 -116 -59 -353 -122 -525 -139 -99
-10 -153 -9 -350 6 -372 29 -587 22 -783 -24 -101 -24 -272 -83 -344 -120
-211 -106 -416 -272 -500 -405 -34 -54 -30 -60 -51 80 -20 135 -116 395 -140
380 -5 -3 -8 0 -5 7 7 17 -52 116 -123 209 -61 81 -114 188 -132 271 -20 87
-9 211 23 282 15 32 26 60 25 61 -2 1 -12 -1 -23 -3z m-2814 -2066 c81 -18
194 -64 255 -107 60 -41 176 -151 193 -181 11 -21 8 -35 -23 -110 -71 -170
-106 -352 -106 -541 1 -184 38 -372 107 -539 42 -102 44 -96 -60 -200 -73 -72
-192 -146 -287 -178 -82 -27 -262 -38 -351 -21 -171 34 -344 151 -470 316 -43
57 -112 192 -140 273 -64 187 -71 441 -18 642 29 112 128 302 196 381 194 220
454 318 704 265z m1582 -2 c39 -9 91 -25 115 -35 24 -11 49 -16 54 -12 6 3 8
1 5 -4 -4 -6 6 -16 22 -22 51 -22 171 -126 236 -205 71 -88 156 -249 180 -341
76 -293 52 -567 -72 -807 -108 -210 -267 -356 -465 -425 -85 -31 -255 -42
-351 -24 -126 23 -251 90 -363 194 -151 141 -254 337 -294 563 -19 106 -9 347
19 454 51 196 177 398 321 514 96 78 231 141 340 159 61 10 187 6 253 -9z
m1920 0 c100 -22 227 -84 307 -149 168 -135 298 -366 340 -601 17 -95 8 -368
-14 -449 -53 -189 -136 -337 -260 -460 -172 -171 -325 -232 -551 -222 -133 6
-209 28 -318 93 -143 85 -247 199 -330 362 -56 109 -82 191 -102 312 -37 233
-3 459 100 665 171 340 504 521 828 449z m1567 2 c163 -35 321 -133 438 -272
76 -92 161 -259 191 -377 124 -482 -75 -981 -467 -1172 -97 -47 -177 -65 -297
-65 -121 0 -202 18 -297 66 -111 56 -172 103 -257 196 -49 54 -51 58 -38 80 8
13 31 66 50 118 120 326 114 708 -18 1026 -19 47 -35 88 -35 94 0 17 111 129
178 179 162 119 366 166 552 127z m-2625 -1663 c85 -146 221 -285 370 -381
105 -67 170 -96 280 -125 l89 -24 9 -39 c5 -21 6 -104 4 -184 -5 -157 -20
-231 -77 -378 -64 -166 -220 -357 -353 -432 -41 -23 -56 -37 -52 -48 4 -12 3
-13 -9 -3 -11 10 -21 9 -43 -2 -82 -43 -240 -61 -366 -42 -158 24 -277 84
-401 204 -123 119 -214 280 -268 476 -22 79 -36 343 -21 409 l9 39 86 23 c210
56 397 179 547 360 37 44 85 111 106 147 22 37 42 67 45 67 3 0 23 -30 45 -67z
m-3483 -25 c72 -117 208 -258 326 -337 117 -79 230 -127 378 -161 l50 -11 -4
-137 c-7 -242 37 -458 134 -655 24 -48 50 -97 59 -109 8 -13 15 -26 15 -30 0
-13 -120 -97 -180 -128 -167 -84 -356 -98 -535 -39 -185 62 -371 236 -475 448
-33 66 -74 199 -90 291 -15 82 -15 264 0 355 16 103 73 264 124 352 40 70 149
213 161 213 3 0 20 -24 37 -52z m7059 -138 c61 -96 120 -254 139 -374 14 -90
14 -276 0 -357 -40 -230 -135 -414 -288 -560 -98 -94 -168 -139 -269 -174
-180 -62 -371 -52 -533 30 -68 34 -190 119 -190 132 0 5 9 22 20 38 30 44 88
169 116 250 55 157 79 328 72 515 l-5 128 71 17 c192 47 360 138 496 269 75
72 172 190 203 247 l19 34 46 -54 c26 -29 72 -93 103 -141z m-5306 -81 c127
-128 335 -241 517 -278 l53 -11 1 -178 c0 -128 5 -201 17 -266 22 -109 61
-235 93 -298 13 -26 24 -57 24 -69 0 -31 -122 -153 -205 -204 -104 -65 -175
-93 -273 -109 -316 -49 -603 104 -788 420 -36 62 -99 243 -115 334 -14 82 -18
283 -6 343 6 27 13 37 27 37 34 0 183 51 254 87 98 49 201 122 271 191 33 33
62 60 65 61 3 0 32 -26 65 -60z m3511 -11 c80 -77 152 -127 267 -184 70 -36
214 -84 248 -84 13 0 20 -11 26 -37 11 -59 8 -271 -6 -343 -55 -291 -205 -525
-422 -659 -295 -181 -659 -125 -904 142 l-64 69 26 57 c86 191 116 341 117
578 l1 183 53 11 c183 38 388 148 517 279 33 33 61 60 62 60 2 0 38 -33 79
-72z m-2416 -1540 c106 -73 170 -104 281 -138 57 -17 111 -35 119 -39 36 -19
37 -284 1 -443 -73 -322 -309 -591 -586 -669 -156 -44 -353 -26 -498 47 -80
40 -187 127 -256 207 -73 84 -156 245 -197 382 -26 83 -28 104 -28 277 -1 102
1 189 4 192 3 3 42 1 87 -3 281 -28 591 84 811 294 l67 64 65 -63 c36 -35 94
-83 130 -108z m1585 -8 c179 -121 370 -181 580 -182 50 0 109 3 132 6 l41 7 8
-57 c13 -106 -2 -320 -30 -418 -128 -454 -508 -729 -896 -648 -116 24 -203 63
-295 132 -264 200 -407 559 -369 929 7 59 8 62 37 68 17 4 78 23 136 43 132
45 263 125 368 224 l78 73 70 -65 c38 -35 102 -86 140 -112z m-3236 66 c22
-19 108 -80 174 -121 15 -9 15 -19 1 -110 -31 -198 -7 -445 64 -660 l30 -90
-38 -55 c-79 -115 -239 -246 -355 -289 -386 -144 -786 48 -969 466 -65 148
-105 365 -91 498 12 125 27 195 40 195 7 0 42 -11 77 -24 199 -75 447 -77 659
-5 111 37 249 115 344 194 17 13 32 24 34 25 3 0 16 -11 30 -24z m4598 -40
c196 -142 389 -208 614 -207 126 0 235 18 337 57 35 13 70 24 77 24 34 0 51
-296 26 -440 -69 -392 -336 -696 -665 -755 -229 -41 -443 27 -623 199 -42 39
-93 97 -115 129 l-40 59 20 46 c86 204 118 570 67 774 -5 21 5 30 83 80 48 32
97 67 107 78 10 11 20 20 21 20 2 0 43 -29 91 -64z m-2316 -1102 c143 -251
413 -455 690 -521 l70 -17 -6 -61 c-10 -82 -40 -192 -78 -289 -92 -229 -298
-428 -510 -494 -69 -21 -102 -25 -207 -25 -110 -1 -135 3 -210 27 -219 71
-415 262 -507 492 -38 97 -68 207 -78 289 l-6 61 70 17 c277 66 527 254 686
515 21 34 41 62 46 62 4 0 22 -25 40 -56z m-1730 -237 c152 -150 310 -240 500
-285 l70 -17 -6 -55 c-18 -148 -90 -345 -166 -457 -83 -122 -201 -229 -314
-286 -230 -114 -492 -98 -704 43 -221 148 -371 404 -405 692 l-7 56 58 -5
c134 -12 340 34 498 113 94 46 229 149 307 234 34 39 63 70 64 70 1 0 48 -46
105 -103z m3751 -141 c171 -112 349 -168 541 -170 l118 -1 -6 -50 c-9 -73 -51
-233 -76 -290 -42 -96 -119 -212 -191 -287 -163 -168 -357 -249 -566 -235
-388 26 -698 363 -757 823 l-7 51 39 7 c61 11 193 56 258 89 93 46 202 128
294 220 l84 84 91 -92 c50 -51 130 -117 178 -149z m-2962 -836 c110 -166 272
-318 426 -397 43 -22 107 -51 142 -63 34 -13 62 -27 62 -31 0 -19 -64 -206
-83 -244 -126 -251 -348 -429 -580 -466 -334 -53 -652 133 -812 476 -35 73
-75 186 -75 208 0 3 26 8 57 12 121 15 296 85 417 168 126 85 309 286 361 395
17 35 22 40 30 26 6 -9 30 -47 55 -84z m1969 -68 c182 -236 422 -391 674 -433
42 -7 77 -15 77 -18 0 -4 -7 -28 -15 -56 -30 -98 -69 -181 -132 -277 -236
-361 -675 -465 -1013 -239 -121 81 -238 216 -308 356 -19 38 -82 226 -82 244
0 4 28 19 63 31 244 88 456 268 597 508 l32 52 24 -46 c13 -25 51 -80 83 -122z
m-1026 -746 c88 -216 277 -442 468 -559 51 -32 115 -66 142 -75 26 -9 47 -20
47 -25 0 -17 -44 -95 -90 -157 -104 -145 -250 -255 -405 -307 -112 -37 -284
-39 -395 -5 -193 60 -392 229 -486 414 -28 55 -30 68 -9 68 19 0 154 71 223
119 85 58 184 152 247 236 82 110 146 217 141 238 -2 9 -1 15 4 12 7 -4 39 61
55 113 3 12 9 22 13 22 4 0 24 -42 45 -94z"/>
</g>
</svg>
